ayanna-tamil-Light.ufo
<glyph name="tm_Visarga" format="1">
  <advance width="733"/>
  <unicode hex="0B83"/>
  <outline>
    <contour>
      <point x="475" y="106" type="curve" smooth="yes"/>
      <point x="475" y="170"/>
      <point x="527" y="222"/>
      <point x="591" y="222" type="curve" smooth="yes"/>
      <point x="655" y="222"/>
      <point x="707" y="170"/>
      <point x="707" y="106" type="curve" smooth="yes"/>
      <point x="707" y="42"/>
      <point x="655" y="-10"/>
      <point x="591" y="-10" type="curve" smooth="yes"/>
      <point x="527" y="-10"/>
      <point x="475" y="42"/>
    </contour>
    <contour>
      <point x="503" y="106" type="curve" smooth="yes"/>
      <point x="503" y="58"/>
      <point x="542" y="19"/>
      <point x="590" y="19" type="curve" smooth="yes"/>
      <point x="639" y="19"/>
      <point x="677" y="58"/>
      <point x="677" y="106" type="curve" smooth="yes"/>
      <point x="677" y="154"/>
      <point x="639" y="193"/>
      <point x="590" y="193" type="curve" smooth="yes"/>
      <point x="542" y="193"/>
      <point x="503" y="154"/>
    </contour>
    <contour>
      <point x="27" y="106" type="curve" smooth="yes"/>
      <point x="27" y="170"/>
      <point x="79" y="222"/>
      <point x="143" y="222" type="curve" smooth="yes"/>
      <point x="207" y="222"/>
      <point x="259" y="170"/>
      <point x="259" y="106" type="curve" smooth="yes"/>
      <point x="259" y="42"/>
      <point x="207" y="-10"/>
      <point x="143" y="-10" type="curve" smooth="yes"/>
      <point x="79" y="-10"/>
      <point x="27" y="42"/>
    </contour>
    <contour>
      <point x="55" y="106" type="curve" smooth="yes"/>
      <point x="55" y="58"/>
      <point x="94" y="19"/>
      <point x="142" y="19" type="curve" smooth="yes"/>
      <point x="191" y="19"/>
      <point x="229" y="58"/>
      <point x="229" y="106" type="curve" smooth="yes"/>
      <point x="229" y="154"/>
      <point x="191" y="193"/>
      <point x="142" y="193" type="curve" smooth="yes"/>
      <point x="94" y="193"/>
      <point x="55" y="154"/>
    </contour>
    <contour>
      <point x="246" y="678" type="curve" smooth="yes"/>
      <point x="246" y="742"/>
      <point x="299" y="794"/>
      <point x="363" y="794" type="curve" smooth="yes"/>
      <point x="426" y="794"/>
      <point x="479" y="742"/>
      <point x="479" y="678" type="curve" smooth="yes"/>
      <point x="479" y="614"/>
      <point x="426" y="562"/>
      <point x="363" y="562" type="curve" smooth="yes"/>
      <point x="299" y="562"/>
      <point x="246" y="614"/>
    </contour>
    <contour>
      <point x="275" y="678" type="curve" smooth="yes"/>
      <point x="275" y="630"/>
      <point x="314" y="591"/>
      <point x="362" y="591" type="curve" smooth="yes"/>
      <point x="410" y="591"/>
      <point x="449" y="630"/>
      <point x="449" y="678" type="curve" smooth="yes"/>
      <point x="449" y="726"/>
      <point x="410" y="765"/>
      <point x="362" y="765" type="curve" smooth="yes"/>
      <point x="314" y="765"/>
      <point x="275" y="726"/>
    </contour>
  </outline>
</glyph>
<glyph name="tm_A" format="1">
  <advance width="730"/>
  <unicode hex="0B85"/>
  <outline>
    <contour>
      <point x="220" y="363" type="curve" smooth="yes"/>
      <point x="220" y="313"/>
      <point x="261" y="272"/>
      <point x="311" y="272" type="curve" smooth="yes"/>
      <point x="361" y="272"/>
      <point x="402" y="313"/>
      <point x="402" y="363" type="curve" smooth="yes"/>
      <point x="402" y="413"/>
      <point x="361" y="454"/>
      <point x="311" y="454" type="curve" smooth="yes"/>
      <point x="261" y="454"/>
      <point x="220" y="413"/>
    </contour>
    <contour>
      <point x="188" y="363" type="curve" smooth="yes"/>
      <point x="188" y="431"/>
      <point x="243" y="486"/>
      <point x="311" y="486" type="curve" smooth="yes"/>
      <point x="379" y="486"/>
      <point x="434" y="431"/>
      <point x="434" y="363" type="curve" smooth="yes"/>
      <point x="434" y="295"/>
      <point x="380" y="240"/>
      <point x="312" y="240" type="curve" smooth="yes"/>
      <point x="244" y="240"/>
      <point x="188" y="295"/>
    </contour>
    <contour>
      <point x="638" y="501" type="line"/>
      <point x="671" y="501" type="line"/>
      <point x="671" y="-129" type="line"/>
      <point x="638" y="-129" type="line"/>
    </contour>
    <contour>
      <point x="60" y="25" type="curve" smooth="yes"/>
      <point x="60" y="108"/>
      <point x="120" y="165"/>
      <point x="206" y="165" type="curve" smooth="yes"/>
      <point x="497" y="165" type="line"/>
      <point x="490" y="147" type="line"/>
      <point x="491" y="183"/>
      <point x="482" y="242"/>
      <point x="468" y="289" type="curve" smooth="yes"/>
      <point x="442" y="378"/>
      <point x="381" y="451"/>
      <point x="300" y="466" type="curve"/>
      <point x="311" y="486" type="line"/>
      <point x="423" y="486"/>
      <point x="476" y="375"/>
      <point x="499" y="297" type="curve" smooth="yes"/>
      <point x="513" y="249"/>
      <point x="521" y="187"/>
      <point x="520" y="149" type="curve"/>
      <point x="506" y="165" type="line"/>
      <point x="649" y="165" type="line"/>
      <point x="649" y="132" type="line"/>
      <point x="503" y="132" type="line"/>
      <point x="519" y="146" type="line"/>
      <point x="519" y="3"/>
      <point x="464" y="-134"/>
      <point x="290" y="-134" type="curve" smooth="yes"/>
      <point x="138" y="-134"/>
      <point x="60" y="-67"/>
    </contour>
    <contour>
      <point x="206" y="132" type="line" smooth="yes"/>
      <point x="141" y="132"/>
      <point x="92" y="89"/>
      <point x="92" y="27" type="curve" smooth="yes"/>
      <point x="92" y="-77"/>
      <point x="200" y="-103"/>
      <point x="288" y="-103" type="curve" smooth="yes"/>
      <point x="428" y="-103"/>
      <point x="489" y="13"/>
      <point x="490" y="143" type="curve"/>
      <point x="496" y="132" type="line"/>
    </contour>
  </outline>
</glyph>
<glyph name="tm_Aa" format="1">
  <advance width="1000"/>
  <unicode hex="0B86"/>
  <outline>
    <contour>
      <point x="638" y="-88" type="line"/>
      <point x="639" y="25"/>
      <point x="687" y="139"/>
      <point x="808" y="139" type="curve" smooth="yes"/>
      <point x="932" y="139"/>
      <point x="984" y="30"/>
      <point x="984" y="-90" type="curve" smooth="yes"/>
      <point x="984" y="-222"/>
      <point x="912" y="-326"/>
      <point x="774" y="-327" type="curve" smooth="yes"/>
      <point x="644" y="-328"/>
      <point x="572" y="-238"/>
      <point x="532" y="-171" type="curve"/>
      <point x="561" y="-155" type="line"/>
      <point x="602" y="-220"/>
      <point x="658" y="-291"/>
      <point x="772" y="-291" type="curve" smooth="yes"/>
      <point x="875" y="-291"/>
      <point x="947" y="-229"/>
      <point x="949" y="-92" type="curve" smooth="yes"/>
      <point x="951" y="-4"/>
      <point x="915" y="104"/>
      <point x="808" y="104" type="curve" smooth="yes"/>
      <point x="709" y="104"/>
      <point x="671" y="-10"/>
      <point x="671" y="-88" type="curve"/>
    </contour>
    <component base="tm_A"/>
  </outline>
</glyph>
<glyph name="tm_I" format="1">
  <advance width="717"/>
  <unicode hex="0B87"/>
  <outline>
    <contour>
      <point x="449" y="445" type="curve"/>
      <point x="384" y="555" type="line"/>
      <point x="473" y="522"/>
      <point x="519" y="400"/>
      <point x="519" y="282" type="curve" smooth="yes"/>
      <point x="519" y="199"/>
      <point x="508" y="187"/>
      <point x="508" y="187" type="curve"/>
      <point x="507" y="211" type="line"/>
      <point x="635" y="181"/>
      <point x="675" y="114"/>
      <point x="676" y="36" type="curve" smooth="yes"/>
      <point x="676" y="-69"/>
      <point x="621" y="-129"/>
      <point x="511" y="-129" type="curve" smooth="yes"/>
      <point x="414" y="-129"/>
      <point x="345" y="-60"/>
      <point x="345" y="-60" type="curve"/>
      <point x="368" y="-60" type="line"/>
      <point x="326" y="-90"/>
      <point x="282" y="-130"/>
      <point x="189" y="-129" type="curve" smooth="yes"/>
      <point x="92" y="-128"/>
      <point x="26" y="-83"/>
      <point x="26" y="33" type="curve" smooth="yes"/>
      <point x="27" y="145"/>
      <point x="126" y="190"/>
      <point x="156" y="203" type="curve"/>
      <point x="151" y="172" type="line"/>
      <point x="127" y="233"/>
      <point x="84" y="280"/>
      <point x="84" y="412" type="curve" smooth="yes"/>
      <point x="83" y="579"/>
      <point x="178" y="711"/>
      <point x="348" y="711" type="curve" smooth="yes"/>
      <point x="588" y="711"/>
      <point x="658" y="505"/>
      <point x="628" y="227" type="curve"/>
      <point x="592" y="229" type="line"/>
      <point x="619" y="482"/>
      <point x="565" y="677"/>
      <point x="348" y="677" type="curve" smooth="yes"/>
      <point x="226" y="677"/>
      <point x="118" y="592"/>
      <point x="118" y="411" type="curve" smooth="yes"/>
      <point x="118" y="304"/>
      <point x="167" y="215"/>
      <point x="184" y="187" type="curve"/>
      <point x="165" y="205" type="line"/>
      <point x="165" y="205"/>
      <point x="229" y="230"/>
      <point x="338" y="230" type="curve" smooth="yes"/>
      <point x="432" y="230"/>
      <point x="497" y="213"/>
      <point x="497" y="213" type="curve"/>
      <point x="476" y="199" type="line"/>
      <point x="476" y="199"/>
      <point x="488" y="208"/>
      <point x="488" y="277" type="curve" smooth="yes"/>
      <point x="488" y="330"/>
      <point x="474" y="394"/>
    </contour>
    <contour>
      <point x="244" y="442" type="curve" smooth="yes"/>
      <point x="244" y="392"/>
      <point x="285" y="351"/>
      <point x="335" y="351" type="curve" smooth="yes"/>
      <point x="385" y="351"/>
      <point x="426" y="392"/>
      <point x="426" y="442" type="curve" smooth="yes"/>
      <point x="426" y="492"/>
      <point x="385" y="533"/>
      <point x="335" y="533" type="curve" smooth="yes"/>
      <point x="285" y="533"/>
      <point x="244" y="492"/>
    </contour>
    <contour>
      <point x="212" y="442" type="curve" smooth="yes"/>
      <point x="212" y="510"/>
      <point x="267" y="565"/>
      <point x="335" y="565" type="curve" smooth="yes"/>
      <point x="403" y="565"/>
      <point x="458" y="510"/>
      <point x="458" y="442" type="curve" smooth="yes"/>
      <point x="458" y="374"/>
      <point x="403" y="319"/>
      <point x="335" y="319" type="curve" smooth="yes"/>
      <point x="267" y="319"/>
      <point x="212" y="374"/>
    </contour>
    <contour>
      <point x="339" y="-35" type="line"/>
      <point x="396" y="15"/>
      <point x="446" y="93"/>
      <point x="476" y="192" type="curve"/>
      <point x="482" y="180" type="line"/>
      <point x="459" y="187"/>
      <point x="406" y="197"/>
      <point x="340" y="197" type="curve" smooth="yes"/>
      <point x="240" y="197"/>
      <point x="169" y="169"/>
      <point x="169" y="169" type="curve"/>
      <point x="175" y="168"/>
      <point x="181" y="183"/>
      <point x="187" y="182" type="curve"/>
      <point x="232" y="99"/>
      <point x="307" y="10"/>
      <point x="367" y="-34" type="curve"/>
    </contour>
    <contour>
      <point x="58" y="32" type="curve" smooth="yes"/>
      <point x="58" y="-56"/>
      <point x="117" y="-99"/>
      <point x="190" y="-99" type="curve" smooth="yes"/>
      <point x="250" y="-99"/>
      <point x="297" y="-69"/>
      <point x="331" y="-40" type="curve"/>
      <point x="330" y="-53" type="line"/>
      <point x="268" y="-7"/>
      <point x="194" y="91"/>
      <point x="156" y="164" type="curve"/>
      <point x="155" y="169"/>
      <point x="165" y="169"/>
      <point x="164" y="169" type="curve"/>
      <point x="120" y="151"/>
      <point x="58" y="108"/>
    </contour>
    <contour>
      <point x="377" y="-53" type="curve"/>
      <point x="377" y="-41" type="line"/>
      <point x="401" y="-62"/>
      <point x="451" y="-97"/>
      <point x="513" y="-97" type="curve" smooth="yes"/>
      <point x="601" y="-97"/>
      <point x="642" y="-45"/>
      <point x="642" y="38" type="curve" smooth="yes"/>
      <point x="642" y="106"/>
      <point x="594" y="156"/>
      <point x="494" y="178" type="curve"/>
      <point x="508" y="181" type="line"/>
      <point x="481" y="84"/>
      <point x="431" y="4"/>
    </contour>
  </outline>
</glyph>
<glyph name="tm_Ii" format="1">
  <advance width="722"/>
  <unicode hex="0B88"/>
  <outline>
    <contour>
      <point x="563" y="287" type="curve" smooth="yes"/>
      <point x="563" y="307"/>
      <point x="580" y="324"/>
      <point x="600" y="324" type="curve" smooth="yes"/>
      <point x="620" y="324"/>
      <point x="637" y="307"/>
      <point x="637" y="287" type="curve" smooth="yes"/>
      <point x="637" y="267"/>
      <point x="620" y="250"/>
      <point x="600" y="250" type="curve" smooth="yes"/>
      <point x="580" y="250"/>
      <point x="563" y="267"/>
    </contour>
    <contour>
      <point x="313" y="287" type="curve" smooth="yes"/>
      <point x="313" y="307"/>
      <point x="330" y="324"/>
      <point x="350" y="324" type="curve" smooth="yes"/>
      <point x="370" y="324"/>
      <point x="387" y="307"/>
      <point x="387" y="287" type="curve" smooth="yes"/>
      <point x="387" y="267"/>
      <point x="370" y="250"/>
      <point x="350" y="250" type="curve" smooth="yes"/>
      <point x="330" y="250"/>
      <point x="313" y="267"/>
    </contour>
    <contour>
      <point x="165" y="1" type="line"/>
      <point x="132" y="1" type="line"/>
      <point x="132" y="521" type="line"/>
      <point x="165" y="521" type="line"/>
    </contour>
    <contour>
      <point x="699" y="521" type="line"/>
      <point x="699" y="486" type="line"/>
      <point x="132" y="486" type="line"/>
      <point x="132" y="521" type="line"/>
    </contour>
    <contour>
      <point x="503" y="1" type="line"/>
      <point x="471" y="1" type="line"/>
      <point x="471" y="521" type="line"/>
      <point x="503" y="521" type="line"/>
    </contour>
  </outline>
</glyph>
<glyph name="tm_U" format="1">
  <advance width="682"/>
  <unicode hex="0B89"/>
  <outline>
    <contour>
      <point x="83" y="364" type="curve" smooth="yes"/>
      <point x="83" y="314"/>
      <point x="124" y="273"/>
      <point x="174" y="273" type="curve" smooth="yes"/>
      <point x="224" y="273"/>
      <point x="265" y="314"/>
      <point x="265" y="364" type="curve" smooth="yes"/>
      <point x="265" y="414"/>
      <point x="224" y="455"/>
      <point x="174" y="455" type="curve" smooth="yes"/>
      <point x="124" y="455"/>
      <point x="83" y="414"/>
    </contour>
    <contour>
      <point x="51" y="364" type="curve" smooth="yes"/>
      <point x="51" y="432"/>
      <point x="106" y="487"/>
      <point x="174" y="487" type="curve" smooth="yes"/>
      <point x="242" y="487"/>
      <point x="297" y="432"/>
      <point x="297" y="364" type="curve" smooth="yes"/>
      <point x="297" y="296"/>
      <point x="243" y="241"/>
      <point x="175" y="241" type="curve" smooth="yes"/>
      <point x="107" y="241"/>
      <point x="51" y="296"/>
    </contour>
    <contour>
      <point x="165" y="455" type="curve"/>
      <point x="158" y="486" type="line"/>
      <point x="247" y="501"/>
      <point x="359" y="446"/>
      <point x="360" y="290" type="curve" smooth="yes"/>
      <point x="361" y="105"/>
      <point x="184" y="32"/>
      <point x="46" y="9" type="curve"/>
      <point x="17" y="18" type="line"/>
      <point x="17" y="35" type="line"/>
      <point x="110" y="58"/>
      <point x="327" y="108"/>
      <point x="327" y="290" type="curve" smooth="yes"/>
      <point x="327" y="421"/>
      <point x="233" y="469"/>
    </contour>
    <contour>
      <point x="17" y="0" type="line"/>
      <point x="17" y="35" type="line"/>
      <point x="647" y="35" type="line"/>
      <point x="647" y="0" type="line"/>
    </contour>
  </outline>
</glyph>
<glyph name="tm_Uu" format="1">
  <advance width="864"/>
  <unicode hex="0B8A"/>
  <outline>
    <contour>
      <point x="204" y="0" type="line"/>
      <point x="204" y="36" type="line"/>
      <point x="840" y="36" type="line"/>
      <point x="840" y="0" type="line"/>
    </contour>
    <contour>
      <point x="461" y="141" type="curve" smooth="yes"/>
      <point x="461" y="162"/>
      <point x="478" y="179"/>
      <point x="499" y="179" type="curve" smooth="yes"/>
      <point x="520" y="179"/>
      <point x="537" y="162"/>
      <point x="537" y="141" type="curve" smooth="yes"/>
      <point x="537" y="120"/>
      <point x="520" y="103"/>
      <point x="499" y="103" type="curve" smooth="yes"/>
      <point x="478" y="103"/>
      <point x="461" y="120"/>
    </contour>
    <contour>
      <point x="520" y="347" type="curve"/>
      <point x="443" y="343"/>
      <point x="408" y="269"/>
      <point x="408" y="201" type="curve" smooth="yes"/>
      <point x="408" y="144"/>
      <point x="435" y="72"/>
      <point x="499" y="72" type="curve" smooth="yes"/>
      <point x="537" y="72"/>
      <point x="568" y="103"/>
      <point x="568" y="141" type="curve" smooth="yes"/>
      <point x="568" y="179"/>
      <point x="537" y="210"/>
      <point x="499" y="210" type="curve" smooth="yes"/>
      <point x="474" y="210"/>
      <point x="452" y="197"/>
      <point x="440" y="177" type="curve"/>
      <point x="436" y="202"/>
      <point x="439" y="230"/>
      <point x="448" y="254" type="curve" smooth="yes"/>
      <point x="461" y="290"/>
      <point x="488" y="315"/>
      <point x="527" y="316" type="curve"/>
      <point x="550" y="315"/>
      <point x="569" y="307"/>
      <point x="583" y="281" type="curve" smooth="yes"/>
      <point x="586" y="275"/>
      <point x="588" y="269"/>
      <point x="588" y="262" type="curve" smooth="yes"/>
      <point x="588" y="73" type="line"/>
      <point x="619" y="73" type="line"/>
      <point x="619" y="230" type="line" smooth="yes"/>
      <point x="619" y="238"/>
      <point x="620" y="247"/>
      <point x="619" y="255" type="curve"/>
      <point x="619" y="316" type="line"/>
      <point x="712" y="316" type="line"/>
      <point x="712" y="73" type="line"/>
      <point x="743" y="73" type="line"/>
      <point x="743" y="316" type="line"/>
      <point x="841" y="316" type="line"/>
      <point x="841" y="348" type="line"/>
      <point x="588" y="348" type="line"/>
      <point x="588" y="327" type="line"/>
      <point x="569" y="340"/>
      <point x="557" y="346"/>
    </contour>
    <component base="tm_U" yOffset="1" yScale="0.995"/>
  </outline>
</glyph>
<glyph name="tm_E" format="1">
  <advance width="750"/>
  <unicode hex="0B8E"/>
  <outline>
    <contour>
      <point x="179" y="7" type="line" smooth="yes"/>
      <point x="-9" y="81"/>
      <point x="53" y="521"/>
      <point x="319" y="521" type="curve" smooth="yes"/>
      <point x="318" y="486" type="line" smooth="yes"/>
      <point x="96" y="486"/>
      <point x="15" y="96"/>
      <point x="215" y="21" type="curve" smooth="yes"/>
    </contour>
    <contour>
      <point x="131" y="122" type="curve" smooth="yes"/>
      <point x="131" y="72"/>
      <point x="172" y="31"/>
      <point x="222" y="31" type="curve" smooth="yes"/>
      <point x="272" y="31"/>
      <point x="313" y="72"/>
      <point x="313" y="122" type="curve" smooth="yes"/>
      <point x="313" y="172"/>
      <point x="272" y="213"/>
      <point x="222" y="213" type="curve" smooth="yes"/>
      <point x="172" y="213"/>
      <point x="131" y="172"/>
    </contour>
    <contour>
      <point x="99" y="122" type="curve" smooth="yes"/>
      <point x="99" y="190"/>
      <point x="154" y="245"/>
      <point x="222" y="245" type="curve" smooth="yes"/>
      <point x="290" y="245"/>
      <point x="345" y="190"/>
      <point x="345" y="122" type="curve" smooth="yes"/>
      <point x="345" y="54"/>
      <point x="291" y="-1"/>
      <point x="223" y="-1" type="curve" smooth="yes"/>
      <point x="155" y="-1"/>
      <point x="99" y="54"/>
    </contour>
    <contour>
      <point x="767" y="521" type="line"/>
      <point x="767" y="486" type="line"/>
      <point x="300" y="486" type="line"/>
      <point x="300" y="521" type="line"/>
    </contour>
    <contour>
      <point x="571" y="1" type="line"/>
      <point x="539" y="1" type="line"/>
      <point x="539" y="521" type="line"/>
      <point x="571" y="521" type="line"/>
    </contour>
  </outline>
</glyph>
<glyph name="tm_Ee" format="1">
  <advance width="750"/>
  <unicode hex="0B8F"/>
  <outline>
    <contour>
      <point x="571" y="0" type="line"/>
      <point x="424" y="-224" type="line"/>
      <point x="397" y="-206" type="line"/>
      <point x="539" y="10" type="line"/>
    </contour>
    <component base="tm_E" yOffset="-1"/>
  </outline>
</glyph>
<glyph name="tm_O" format="1">
  <advance width="554"/>
  <unicode hex="0B92"/>
  <outline>
    <contour>
      <point x="68" y="242" type="curve" smooth="yes"/>
      <point x="68" y="192"/>
      <point x="109" y="151"/>
      <point x="159" y="151" type="curve" smooth="yes"/>
      <point x="209" y="151"/>
      <point x="250" y="192"/>
      <point x="250" y="242" type="curve" smooth="yes"/>
      <point x="250" y="292"/>
      <point x="209" y="333"/>
      <point x="159" y="333" type="curve" smooth="yes"/>
      <point x="109" y="333"/>
      <point x="68" y="292"/>
    </contour>
    <contour>
      <point x="36" y="242" type="curve" smooth="yes"/>
      <point x="36" y="310"/>
      <point x="91" y="365"/>
      <point x="159" y="365" type="curve" smooth="yes"/>
      <point x="227" y="365"/>
      <point x="282" y="310"/>
      <point x="282" y="242" type="curve" smooth="yes"/>
      <point x="282" y="174"/>
      <point x="227" y="119"/>
      <point x="159" y="119" type="curve" smooth="yes"/>
      <point x="91" y="119"/>
      <point x="36" y="174"/>
    </contour>
    <contour>
      <point x="50" y="185" type="line"/>
      <point x="-6" y="278"/>
      <point x="40" y="527"/>
      <point x="266" y="527" type="curve" smooth="yes"/>
      <point x="454" y="527"/>
      <point x="515" y="377"/>
      <point x="515" y="232" type="curve" smooth="yes"/>
      <point x="515" y="64"/>
      <point x="401" y="-37"/>
      <point x="331" y="-71" type="curve"/>
      <point x="330" y="-75"/>
      <point x="334" y="-53"/>
      <point x="333" y="-56" type="curve"/>
      <point x="370" y="-86"/>
      <point x="432" y="-106"/>
      <point x="489" y="-112" type="curve"/>
      <point x="490" y="-166" type="line"/>
      <point x="396" y="-179"/>
      <point x="403" y="-261"/>
      <point x="245" y="-261" type="curve" smooth="yes"/>
      <point x="151" y="-261"/>
      <point x="108" y="-195"/>
      <point x="93" y="-166" type="curve"/>
      <point x="116" y="-147" type="line"/>
      <point x="133" y="-175"/>
      <point x="165" y="-229"/>
      <point x="248" y="-229" type="curve" smooth="yes"/>
      <point x="369" y="-229"/>
      <point x="389" y="-146"/>
      <point x="473" y="-135" type="curve"/>
      <point x="463" y="-144" type="line"/>
      <point x="400" y="-129"/>
      <point x="275" y="-111"/>
      <point x="275" y="12" type="curve" smooth="yes"/>
      <point x="275" y="34"/>
      <point x="283" y="57"/>
      <point x="283" y="57" type="curve"/>
      <point x="314" y="57" type="line"/>
      <point x="308" y="42"/>
      <point x="305" y="27"/>
      <point x="305" y="12" type="curve" smooth="yes"/>
      <point x="305" y="-19"/>
      <point x="317" y="-42"/>
      <point x="329" y="-51" type="curve"/>
      <point x="308" y="-35" type="line"/>
      <point x="386" y="-10"/>
      <point x="481" y="106"/>
      <point x="483" y="230" type="curve" smooth="yes"/>
      <point x="485" y="341"/>
      <point x="438" y="494"/>
      <point x="266" y="494" type="curve" smooth="yes"/>
      <point x="82" y="494"/>
      <point x="30" y="286"/>
      <point x="76" y="206" type="curve"/>
    </contour>
  </outline>
</glyph>
<glyph name="tm_Oo" format="1">
  <advance width="530"/>
  <unicode hex="0B93"/>
  <outline>
    <contour>
      <point x="99" y="-165" type="curve" smooth="yes"/>
      <point x="99" y="-182"/>
      <point x="113" y="-196"/>
      <point x="130" y="-196" type="curve" smooth="yes"/>
      <point x="148" y="-196"/>
      <point x="162" y="-182"/>
      <point x="162" y="-165" type="curve" smooth="yes"/>
      <point x="162" y="-148"/>
      <point x="148" y="-134"/>
      <point x="130" y="-134" type="curve" smooth="yes"/>
      <point x="113" y="-134"/>
      <point x="99" y="-148"/>
    </contour>
    <contour>
      <point x="69" y="-166" type="curve" smooth="yes"/>
      <point x="69" y="-132"/>
      <point x="96" y="-103"/>
      <point x="130" y="-103" type="curve" smooth="yes"/>
      <point x="164" y="-103"/>
      <point x="192" y="-131"/>
      <point x="192" y="-165" type="curve" smooth="yes"/>
      <point x="192" y="-199"/>
      <point x="164" y="-227"/>
      <point x="130" y="-227" type="curve" smooth="yes"/>
      <point x="96" y="-227"/>
      <point x="69" y="-200"/>
    </contour>
    <contour>
      <point x="44" y="242" type="curve" smooth="yes"/>
      <point x="44" y="192"/>
      <point x="85" y="151"/>
      <point x="135" y="151" type="curve" smooth="yes"/>
      <point x="185" y="151"/>
      <point x="226" y="192"/>
      <point x="226" y="242" type="curve" smooth="yes"/>
      <point x="226" y="292"/>
      <point x="185" y="333"/>
      <point x="135" y="333" type="curve" smooth="yes"/>
      <point x="85" y="333"/>
      <point x="44" y="292"/>
    </contour>
    <contour>
      <point x="12" y="242" type="curve" smooth="yes"/>
      <point x="12" y="310"/>
      <point x="67" y="365"/>
      <point x="135" y="365" type="curve" smooth="yes"/>
      <point x="203" y="365"/>
      <point x="258" y="310"/>
      <point x="258" y="242" type="curve" smooth="yes"/>
      <point x="258" y="174"/>
      <point x="203" y="119"/>
      <point x="135" y="119" type="curve" smooth="yes"/>
      <point x="67" y="119"/>
      <point x="12" y="174"/>
    </contour>
    <contour>
      <point x="26" y="185" type="line"/>
      <point x="-30" y="278"/>
      <point x="16" y="527"/>
      <point x="242" y="527" type="curve" smooth="yes"/>
      <point x="430" y="527"/>
      <point x="491" y="377"/>
      <point x="491" y="232" type="curve" smooth="yes"/>
      <point x="491" y="64"/>
      <point x="377" y="-37"/>
      <point x="307" y="-71" type="curve"/>
      <point x="306" y="-75"/>
      <point x="310" y="-53"/>
      <point x="309" y="-56" type="curve"/>
      <point x="346" y="-86"/>
      <point x="408" y="-106"/>
      <point x="465" y="-112" type="curve"/>
      <point x="466" y="-166" type="line"/>
      <point x="372" y="-179"/>
      <point x="379" y="-261"/>
      <point x="221" y="-261" type="curve" smooth="yes"/>
      <point x="77" y="-261"/>
      <point x="71" y="-195"/>
      <point x="69" y="-166" type="curve"/>
      <point x="99" y="-165" type="line"/>
      <point x="96" y="-193"/>
      <point x="121" y="-229"/>
      <point x="224" y="-229" type="curve" smooth="yes"/>
      <point x="345" y="-229"/>
      <point x="365" y="-146"/>
      <point x="449" y="-135" type="curve"/>
      <point x="439" y="-144" type="line"/>
      <point x="376" y="-129"/>
      <point x="251" y="-111"/>
      <point x="251" y="12" type="curve" smooth="yes"/>
      <point x="251" y="34"/>
      <point x="259" y="57"/>
      <point x="259" y="57" type="curve"/>
      <point x="290" y="57" type="line"/>
      <point x="284" y="42"/>
      <point x="281" y="27"/>
      <point x="281" y="12" type="curve" smooth="yes"/>
      <point x="281" y="-19"/>
      <point x="293" y="-42"/>
      <point x="305" y="-51" type="curve"/>
      <point x="284" y="-35" type="line"/>
      <point x="362" y="-10"/>
      <point x="457" y="106"/>
      <point x="459" y="230" type="curve" smooth="yes"/>
      <point x="461" y="341"/>
      <point x="414" y="494"/>
      <point x="242" y="494" type="curve" smooth="yes"/>
      <point x="58" y="494"/>
      <point x="6" y="286"/>
      <point x="52" y="206" type="curve"/>
    </contour>
  </outline>
</glyph>
<glyph name="tm_Au" format="1">
  <advance width="1502"/>
  <unicode hex="0B94"/>
  <outline>
    <contour>
      <point x="1008" y="1" type="line"/>
      <point x="975" y="1" type="line"/>
      <point x="975" y="521" type="line"/>
      <point x="1008" y="521" type="line"/>
    </contour>
    <contour>
      <point x="1452" y="521" type="line"/>
      <point x="1452" y="486" type="line"/>
      <point x="975" y="486" type="line"/>
      <point x="975" y="521" type="line"/>
    </contour>
    <contour>
      <point x="1256" y="1" type="line"/>
      <point x="1224" y="1" type="line"/>
      <point x="1224" y="521" type="line"/>
      <point x="1256" y="521" type="line"/>
    </contour>
    <contour>
      <point x="659" y="122" type="curve" smooth="yes"/>
      <point x="659" y="190"/>
      <point x="714" y="245"/>
      <point x="782" y="245" type="curve" smooth="yes"/>
      <point x="850" y="245"/>
      <point x="905" y="190"/>
      <point x="905" y="122" type="curve" smooth="yes"/>
      <point x="905" y="54"/>
      <point x="851" y="-1"/>
      <point x="783" y="-1" type="curve" smooth="yes"/>
      <point x="715" y="-1"/>
      <point x="659" y="54"/>
    </contour>
    <contour>
      <point x="691" y="122" type="curve" smooth="yes"/>
      <point x="691" y="72"/>
      <point x="732" y="31"/>
      <point x="782" y="31" type="curve" smooth="yes"/>
      <point x="832" y="31"/>
      <point x="873" y="72"/>
      <point x="873" y="122" type="curve" smooth="yes"/>
      <point x="873" y="172"/>
      <point x="832" y="213"/>
      <point x="782" y="213" type="curve" smooth="yes"/>
      <point x="732" y="213"/>
      <point x="691" y="172"/>
    </contour>
    <contour>
      <point x="739" y="7" type="line" smooth="yes"/>
      <point x="551" y="81"/>
      <point x="573" y="520"/>
      <point x="839" y="520" type="curve" smooth="yes"/>
      <point x="838" y="486" type="line" smooth="yes"/>
      <point x="616" y="486"/>
      <point x="575" y="96"/>
      <point x="775" y="21" type="curve" smooth="yes"/>
    </contour>
    <contour>
      <point x="975" y="304" type="line" smooth="yes"/>
      <point x="975" y="340"/>
      <point x="981" y="374"/>
      <point x="963" y="409" type="curve" smooth="yes"/>
      <point x="934" y="467"/>
      <point x="888" y="485"/>
      <point x="838" y="486" type="curve"/>
      <point x="838" y="520" type="line"/>
      <point x="903" y="519"/>
      <point x="956" y="497"/>
      <point x="990" y="428" type="curve" smooth="yes"/>
      <point x="1012" y="384"/>
      <point x="1008" y="343"/>
      <point x="1008" y="300" type="curve" smooth="yes"/>
    </contour>
    <component base="tm_O"/>
  </outline>
</glyph>
<glyph name="tm_Tta" format="1">
  <advance width="765"/>
  <unicode hex="0B9F"/>
  <outline>
    <contour>
      <point x="85" y="0" type="line"/>
      <point x="85" y="35" type="line"/>
      <point x="692" y="35" type="line"/>
      <point x="692" y="0" type="line"/>
    </contour>
    <contour>
      <point x="81" y="520" type="line"/>
      <point x="113" y="520" type="line"/>
      <point x="113" y="0" type="line"/>
      <point x="81" y="0" type="line"/>
    </contour>
  </outline>
</glyph>
<glyph name="tm_Pa" format="1">
  <advance width="561"/>
  <unicode hex="0BAA"/>
  <outline>
    <contour>
      <point x="455" y="520" type="line"/>
      <point x="455" y="35" type="line"/>
      <point x="106" y="35" type="line"/>
      <point x="106" y="520" type="line"/>
      <point x="70" y="520" type="line"/>
      <point x="70" y="0" type="line"/>
      <point x="491" y="0" type="line"/>
      <point x="491" y="520" type="line"/>
    </contour>
  </outline>
</glyph>
<glyph name="tm_Ma" format="1">
  <advance width="684"/>
  <unicode hex="0BAE"/>
  <outline>
    <contour>
      <point x="544" y="2" type="curve" smooth="yes"/>
      <point x="545" y="1" type="line"/>
      <point x="60" y="1" type="line" smooth="yes"/>
      <point x="57" y="1" type="line"/>
      <point x="57" y="517" type="line"/>
      <point x="90" y="517" type="line"/>
      <point x="90" y="34" type="line"/>
      <point x="296" y="34" type="line"/>
      <point x="296" y="313" type="line" smooth="yes"/>
      <point x="296" y="494"/>
      <point x="402" y="524"/>
      <point x="454" y="524" type="curve" smooth="yes"/>
      <point x="593" y="523"/>
      <point x="632" y="377"/>
      <point x="631" y="284" type="curve" smooth="yes"/>
      <point x="629" y="159"/>
      <point x="567" y="47"/>
    </contour>
    <contour>
      <point x="522" y="34" type="line"/>
      <point x="522" y="34"/>
      <point x="598" y="169"/>
      <point x="597" y="285" type="curve" smooth="yes"/>
      <point x="597" y="386"/>
      <point x="551" y="490"/>
      <point x="456" y="490" type="curve" smooth="yes"/>
      <point x="373" y="490"/>
      <point x="331" y="422"/>
      <point x="330" y="312" type="curve" smooth="yes"/>
      <point x="330" y="34" type="line"/>
    </contour>
  </outline>
</glyph>
<glyph name="tm_Ya" format="1">
  <advance width="878"/>
  <unicode hex="0BAF"/>
  <outline>
    <contour>
      <point x="465" y="520" type="line"/>
      <point x="497" y="520" type="line"/>
      <point x="497" y="130" type="line"/>
      <point x="497" y="0" type="line"/>
      <point x="465" y="0" type="line"/>
      <point x="465" y="129" type="line"/>
    </contour>
    <contour>
      <point x="469" y="0" type="line"/>
      <point x="469" y="35" type="line"/>
      <point x="787" y="35" type="line"/>
      <point x="787" y="0" type="line"/>
    </contour>
    <contour>
      <point x="754" y="520" type="line"/>
      <point x="787" y="520" type="line"/>
      <point x="787" y="0" type="line"/>
      <point x="754" y="0" type="line"/>
    </contour>
    <contour>
      <point x="192" y="520" type="line"/>
      <point x="224" y="520" type="line"/>
      <point x="224" y="150" type="line" smooth="yes"/>
      <point x="224" y="40"/>
      <point x="285" y="27"/>
      <point x="343" y="27" type="curve" smooth="yes"/>
      <point x="465" y="27"/>
      <point x="465" y="142"/>
      <point x="465" y="252" type="curve"/>
      <point x="497" y="254" type="line"/>
      <point x="497" y="132"/>
      <point x="498" y="-4"/>
      <point x="342" y="-4" type="curve" smooth="yes"/>
      <point x="214" y="-4"/>
      <point x="192" y="72"/>
      <point x="192" y="150" type="curve" smooth="yes"/>
    </contour>
    <contour>
      <point x="848" y="0" type="move" name="Anchor-4"/>
    </contour>
    <contour>
      <point x="533" y="0" type="move" name="Anchor-1"/>
    </contour>
    <contour>
      <point x="507" y="0" type="move" name="Anchor-0"/>
    </contour>
  </outline>
</glyph>
<glyph name="tm_Ra" format="1">
  <advance width="546"/>
  <unicode hex="0BB0"/>
  <outline>
    <contour>
      <point x="476" y="25" type="line"/>
      <point x="502" y="0" type="line"/>
      <point x="206" y="-295" type="line"/>
      <point x="181" y="-270" type="line"/>
    </contour>
    <contour>
      <point x="113" y="0" type="line"/>
      <point x="80" y="0" type="line"/>
      <point x="80" y="520" type="line"/>
      <point x="113" y="520" type="line"/>
    </contour>
    <contour>
      <point x="497" y="520" type="line"/>
      <point x="497" y="485" type="line"/>
      <point x="80" y="485" type="line"/>
      <point x="80" y="520" type="line"/>
    </contour>
    <contour>
      <point x="502" y="0" type="line"/>
      <point x="469" y="0" type="line"/>
      <point x="469" y="520" type="line"/>
      <point x="502" y="520" type="line"/>
    </contour>
  </outline>
</glyph>
<glyph name="tm_Rra" format="1">
  <advance width="697"/>
  <unicode hex="0BB1"/>
  <outline>
    <contour>
      <point x="352" y="0" type="line"/>
      <point x="320" y="0" type="line"/>
      <point x="320" y="380" type="line"/>
      <point x="352" y="380" type="line"/>
    </contour>
    <contour>
      <point x="352" y="390" type="move"/>
    </contour>
    <contour>
      <point x="47" y="360" type="line" smooth="yes"/>
      <point x="47" y="442"/>
      <point x="97" y="524"/>
      <point x="202" y="524" type="curve" smooth="yes"/>
      <point x="317" y="524"/>
      <point x="353" y="434"/>
      <point x="352" y="372" type="curve"/>
      <point x="321" y="372" type="line"/>
      <point x="320" y="477"/>
      <point x="243" y="493"/>
      <point x="201" y="493" type="curve" smooth="yes"/>
      <point x="143" y="493"/>
      <point x="79" y="451"/>
      <point x="79" y="361" type="curve" smooth="yes"/>
    </contour>
    <contour>
      <point x="352" y="0" type="move"/>
      <point x="320" y="0" type="line"/>
    </contour>
    <contour>
      <point x="79" y="0" type="line"/>
      <point x="47" y="0" type="line"/>
      <point x="47" y="380" type="line"/>
      <point x="79" y="380" type="line"/>
    </contour>
    <contour>
      <point x="352" y="396" type="curve" smooth="yes"/>
      <point x="320" y="403" type="line" smooth="yes"/>
      <point x="320" y="416"/>
      <point x="343" y="518"/>
      <point x="464" y="518" type="curve" smooth="yes"/>
      <point x="628" y="518"/>
      <point x="629" y="329"/>
      <point x="629" y="209" type="curve" smooth="yes"/>
      <point x="629" y="48"/>
      <point x="573" y="-128"/>
      <point x="311" y="-128" type="curve" smooth="yes"/>
      <point x="255" y="-128" type="line" smooth="yes"/>
      <point x="188" y="-128"/>
      <point x="114" y="-131"/>
      <point x="115" y="-201" type="curve" smooth="yes"/>
      <point x="116" y="-243"/>
      <point x="123" y="-289"/>
      <point x="213" y="-299" type="curve"/>
      <point x="214" y="-331" type="line"/>
      <point x="116" y="-325"/>
      <point x="81" y="-269"/>
      <point x="81" y="-202" type="curve" smooth="yes"/>
      <point x="81" y="-86"/>
      <point x="205" y="-95"/>
      <point x="284" y="-95" type="curve" smooth="yes"/>
      <point x="310" y="-95" type="line" smooth="yes"/>
      <point x="553" y="-95"/>
      <point x="595" y="72"/>
      <point x="595" y="209" type="curve" smooth="yes"/>
      <point x="595" y="317"/>
      <point x="587" y="484"/>
      <point x="464" y="484" type="curve" smooth="yes"/>
      <point x="408" y="484"/>
      <point x="352" y="447"/>
    </contour>
    <contour>
      <point x="190" y="12" type="move" name="Anchor-1"/>
    </contour>
    <contour>
      <point x="321" y="12" type="move" name="Anchor-0"/>
    </contour>
  </outline>
</glyph>
<glyph name="tm_La" format="1">
  <advance width="668"/>
  <unicode hex="0BB2"/>
  <outline>
    <contour>
      <point x="59" y="118" type="curve" smooth="yes"/>
      <point x="59" y="186"/>
      <point x="114" y="241"/>
      <point x="182" y="241" type="curve" smooth="yes"/>
      <point x="250" y="241"/>
      <point x="305" y="186"/>
      <point x="305" y="118" type="curve" smooth="yes"/>
      <point x="305" y="50"/>
      <point x="251" y="-5"/>
      <point x="183" y="-5" type="curve" smooth="yes"/>
      <point x="115" y="-5"/>
      <point x="59" y="50"/>
    </contour>
    <contour>
      <point x="91" y="118" type="curve" smooth="yes"/>
      <point x="91" y="68"/>
      <point x="132" y="27"/>
      <point x="182" y="27" type="curve" smooth="yes"/>
      <point x="232" y="27"/>
      <point x="273" y="68"/>
      <point x="273" y="118" type="curve" smooth="yes"/>
      <point x="273" y="168"/>
      <point x="232" y="209"/>
      <point x="182" y="209" type="curve" smooth="yes"/>
      <point x="132" y="209"/>
      <point x="91" y="168"/>
    </contour>
    <contour>
      <point x="139" y="3" type="line" smooth="yes"/>
      <point x="-41" y="77"/>
      <point x="-20" y="516"/>
      <point x="235" y="516" type="curve" smooth="yes"/>
      <point x="234" y="482" type="line" smooth="yes"/>
      <point x="26" y="482"/>
      <point x="-12" y="92"/>
      <point x="175" y="17" type="curve" smooth="yes"/>
    </contour>
    <contour>
      <point x="469" y="497" type="curve"/>
      <point x="487" y="525" type="line"/>
      <point x="555" y="495"/>
      <point x="639" y="407"/>
      <point x="639" y="249" type="curve" smooth="yes"/>
      <point x="639" y="129"/>
      <point x="618" y="-5"/>
      <point x="489" y="-5" type="curve" smooth="yes"/>
      <point x="387" y="-5"/>
      <point x="352" y="59"/>
      <point x="352" y="131" type="curve" smooth="yes"/>
      <point x="352" y="233"/>
      <point x="393" y="329"/>
      <point x="359" y="405" type="curve" smooth="yes"/>
      <point x="332" y="464"/>
      <point x="284" y="481"/>
      <point x="234" y="482" type="curve"/>
      <point x="234" y="516" type="line"/>
      <point x="299" y="515"/>
      <point x="353" y="491"/>
      <point x="390" y="423" type="curve" smooth="yes"/>
      <point x="432" y="346"/>
      <point x="387" y="211"/>
      <point x="388" y="132" type="curve" smooth="yes"/>
      <point x="389" y="52"/>
      <point x="437" y="27"/>
      <point x="490" y="27" type="curve" smooth="yes"/>
      <point x="584" y="27"/>
      <point x="606" y="140"/>
      <point x="606" y="248" type="curve" smooth="yes"/>
      <point x="606" y="369"/>
      <point x="544" y="462"/>
    </contour>
  </outline>
</glyph>
<glyph name="tm_Lla" format="1">
  <advance width="880"/>
  <unicode hex="0BB3"/>
  <outline>
    <contour>
      <point x="408" y="1" type="line"/>
      <point x="375" y="1" type="line"/>
      <point x="375" y="521" type="line"/>
      <point x="408" y="521" type="line"/>
    </contour>
    <contour>
      <point x="852" y="521" type="line"/>
      <point x="852" y="486" type="line"/>
      <point x="375" y="486" type="line"/>
      <point x="375" y="521" type="line"/>
    </contour>
    <contour>
      <point x="656" y="1" type="line"/>
      <point x="624" y="1" type="line"/>
      <point x="624" y="521" type="line"/>
      <point x="656" y="521" type="line"/>
    </contour>
    <contour>
      <point x="59" y="122" type="curve" smooth="yes"/>
      <point x="59" y="190"/>
      <point x="114" y="245"/>
      <point x="182" y="245" type="curve" smooth="yes"/>
      <point x="250" y="245"/>
      <point x="305" y="190"/>
      <point x="305" y="122" type="curve" smooth="yes"/>
      <point x="305" y="54"/>
      <point x="251" y="-1"/>
      <point x="183" y="-1" type="curve" smooth="yes"/>
      <point x="115" y="-1"/>
      <point x="59" y="54"/>
    </contour>
    <contour>
      <point x="91" y="122" type="curve" smooth="yes"/>
      <point x="91" y="72"/>
      <point x="132" y="31"/>
      <point x="182" y="31" type="curve" smooth="yes"/>
      <point x="232" y="31"/>
      <point x="273" y="72"/>
      <point x="273" y="122" type="curve" smooth="yes"/>
      <point x="273" y="172"/>
      <point x="232" y="213"/>
      <point x="182" y="213" type="curve" smooth="yes"/>
      <point x="132" y="213"/>
      <point x="91" y="172"/>
    </contour>
    <contour>
      <point x="139" y="7" type="line" smooth="yes"/>
      <point x="-49" y="81"/>
      <point x="-27" y="520"/>
      <point x="239" y="520" type="curve" smooth="yes"/>
      <point x="238" y="486" type="line" smooth="yes"/>
      <point x="16" y="486"/>
      <point x="-25" y="96"/>
      <point x="175" y="21" type="curve" smooth="yes"/>
    </contour>
    <contour>
      <point x="375" y="300" type="line" smooth="yes"/>
      <point x="375" y="336"/>
      <point x="381" y="370"/>
      <point x="363" y="405" type="curve" smooth="yes"/>
      <point x="334" y="466"/>
      <point x="288" y="485"/>
      <point x="238" y="486" type="curve"/>
      <point x="238" y="520" type="line"/>
      <point x="303" y="519"/>
      <point x="356" y="496"/>
      <point x="390" y="424" type="curve" smooth="yes"/>
      <point x="412" y="380"/>
      <point x="408" y="339"/>
      <point x="408" y="296" type="curve" smooth="yes"/>
    </contour>
  </outline>
</glyph>
<glyph name="tm_Llla" format="1">
  <advance width="642"/>
  <unicode hex="0BB4"/>
  <outline>
    <contour>
      <point x="282" y="2" type="line"/>
      <point x="316" y="2" type="line"/>
      <point x="316" y="-23" type="line" smooth="yes"/>
      <point x="316" y="-104"/>
      <point x="409" y="-111"/>
      <point x="504" y="-111" type="curve" smooth="yes"/>
      <point x="576" y="-111" type="line"/>
      <point x="576" y="-111" type="line"/>
      <point x="576" y="-161" type="line"/>
      <point x="444" y="-161"/>
      <point x="391" y="-303"/>
      <point x="225" y="-305" type="curve" smooth="yes"/>
      <point x="175" y="-306"/>
      <point x="114" y="-286"/>
      <point x="114" y="-205" type="curve" smooth="yes"/>
      <point x="114" y="-160"/>
      <point x="145" y="-119"/>
      <point x="195" y="-100" type="curve" smooth="yes"/>
      <point x="210" y="-126" type="line" smooth="yes"/>
      <point x="167" y="-147"/>
      <point x="147" y="-168"/>
      <point x="147" y="-206" type="curve" smooth="yes"/>
      <point x="147" y="-242"/>
      <point x="167" y="-274"/>
      <point x="224" y="-274" type="curve" smooth="yes"/>
      <point x="357" y="-274"/>
      <point x="397" y="-176"/>
      <point x="509" y="-141" type="curve"/>
      <point x="358" y="-153"/>
      <point x="282" y="-114"/>
      <point x="282" y="-24" type="curve" smooth="yes"/>
    </contour>
    <contour>
      <point x="531" y="1" type="curve"/>
      <point x="46" y="1" type="line" smooth="yes"/>
      <point x="43" y="1" type="line"/>
      <point x="43" y="517" type="line"/>
      <point x="76" y="517" type="line"/>
      <point x="76" y="34" type="line"/>
      <point x="282" y="34" type="line"/>
      <point x="282" y="313" type="line" smooth="yes"/>
      <point x="282" y="494"/>
      <point x="388" y="524"/>
      <point x="440" y="524" type="curve" smooth="yes"/>
      <point x="579" y="523"/>
      <point x="618" y="377"/>
      <point x="617" y="284" type="curve" smooth="yes"/>
      <point x="615" y="156"/>
      <point x="531" y="1"/>
    </contour>
    <contour>
      <point x="508" y="34" type="line"/>
      <point x="508" y="34"/>
      <point x="584" y="169"/>
      <point x="583" y="285" type="curve" smooth="yes"/>
      <point x="583" y="386"/>
      <point x="537" y="490"/>
      <point x="442" y="490" type="curve" smooth="yes"/>
      <point x="359" y="490"/>
      <point x="317" y="422"/>
      <point x="316" y="312" type="curve" smooth="yes"/>
      <point x="316" y="34" type="line"/>
    </contour>
    <contour>
      <point x="200" y="0" type="move" name="Anchor-1"/>
    </contour>
    <contour>
      <point x="323" y="0" type="move" name="Anchor-0"/>
    </contour>
  </outline>
</glyph>
<glyph name="tm_Va" format="1">
  <advance width="772"/>
  <unicode hex="0BB5"/>
  <outline>
    <contour>
      <point x="95" y="199"/>
      <point x="131" y="233"/>
      <point x="188" y="233" type="curve" smooth="yes"/>
      <point x="245" y="233"/>
      <point x="289" y="188"/>
      <point x="289" y="126" type="curve" smooth="yes"/>
      <point x="289" y="64"/>
      <point x="252" y="19"/>
      <point x="202" y="19" type="curve" smooth="yes"/>
      <point x="120" y="19"/>
      <point x="77" y="113"/>
      <point x="77" y="242" type="curve" smooth="yes"/>
      <point x="77" y="391"/>
      <point x="151" y="499"/>
      <point x="276" y="499" type="curve" smooth="yes"/>
      <point x="399" y="499"/>
      <point x="471" y="395"/>
      <point x="471" y="251" type="curve" smooth="yes"/>
      <point x="471" y="191"/>
      <point x="458" y="99"/>
      <point x="403" y="33" type="curve"/>
      <point x="403" y="0" type="line"/>
      <point x="702" y="0" type="line"/>
      <point x="702" y="520" type="line"/>
      <point x="666" y="520" type="line"/>
      <point x="666" y="35" type="line"/>
      <point x="448" y="35" type="line"/>
      <point x="500" y="111"/>
      <point x="508" y="202"/>
      <point x="508" y="251" type="curve" smooth="yes"/>
      <point x="510" y="417"/>
      <point x="422" y="536"/>
      <point x="275" y="535" type="curve" smooth="yes"/>
      <point x="129" y="534"/>
      <point x="40" y="411"/>
      <point x="40" y="242" type="curve" smooth="yes"/>
      <point x="40" y="92"/>
      <point x="98" y="-17"/>
      <point x="203" y="-17" type="curve" smooth="yes"/>
      <point x="274" y="-17"/>
      <point x="326" y="43"/>
      <point x="326" y="126" type="curve" smooth="yes"/>
      <point x="326" y="209"/>
      <point x="266" y="269"/>
      <point x="190" y="269" type="curve" smooth="yes"/>
      <point x="134" y="269"/>
      <point x="80" y="238"/>
      <point x="49" y="187" type="curve"/>
      <point x="66" y="165" type="line"/>
    </contour>
  </outline>
</glyph>
<glyph name="tm_Sha" format="1">
  <advance width="747"/>
  <unicode hex="0BB6"/>
  <outline>
    <contour>
      <point x="297" y="485" type="line"/>
      <point x="297" y="520" type="line"/>
      <point x="719" y="520" type="line"/>
      <point x="719" y="485" type="line"/>
    </contour>
    <contour>
      <point x="687" y="520" type="line"/>
      <point x="719" y="520" type="line"/>
      <point x="719" y="130" type="line"/>
      <point x="719" y="230" type="line"/>
      <point x="687" y="230" type="line"/>
      <point x="687" y="129" type="line"/>
    </contour>
    <contour>
      <point x="414" y="520" type="line"/>
      <point x="446" y="520" type="line"/>
      <point x="446" y="130" type="line"/>
      <point x="414" y="130" type="line"/>
    </contour>
    <contour>
      <point x="719" y="254" type="line" smooth="yes"/>
      <point x="719" y="132"/>
      <point x="720" y="-4"/>
      <point x="564" y="-4" type="curve" smooth="yes"/>
      <point x="429" y="-4"/>
      <point x="413" y="86"/>
      <point x="414" y="148" type="curve"/>
      <point x="445" y="148" type="line"/>
      <point x="446" y="43"/>
      <point x="503" y="27"/>
      <point x="565" y="27" type="curve" smooth="yes"/>
      <point x="687" y="27"/>
      <point x="687" y="142"/>
      <point x="687" y="252" type="curve" smooth="yes"/>
    </contour>
    <contour>
      <point x="24" y="520" type="line"/>
      <point x="56" y="520" type="line"/>
      <point x="56" y="224" type="line" smooth="yes"/>
      <point x="56" y="52"/>
      <point x="117" y="27"/>
      <point x="175" y="27" type="curve" smooth="yes"/>
      <point x="289" y="27"/>
      <point x="297" y="126"/>
      <point x="297" y="224" type="curve" smooth="yes"/>
      <point x="297" y="224"/>
      <point x="297" y="420"/>
      <point x="297" y="520" type="curve"/>
      <point x="329" y="520" type="line"/>
      <point x="329" y="224" type="line" smooth="yes"/>
      <point x="329" y="108"/>
      <point x="320" y="-4"/>
      <point x="174" y="-4" type="curve" smooth="yes"/>
      <point x="46" y="-4"/>
      <point x="24" y="100"/>
      <point x="24" y="224" type="curve" smooth="yes"/>
    </contour>
    <contour>
      <point x="690" y="0" type="move" name="Anchor-4"/>
    </contour>
    <contour>
      <point x="365" y="0" type="move" name="Anchor-1"/>
    </contour>
    <contour>
      <point x="339" y="4" type="move" name="Anchor-0"/>
    </contour>
  </outline>
</glyph>
